<svg viewBox="0 0 32 32" shape-rendering="crispEdges" xmlns="http://www.w3.org/2000/svg">
	<rect x="10" y="2" fill="#E86DE8" width="1" height="1" />
	<rect x="11" y="2" fill="#F183FF" width="1" height="1" />
	<rect x="19" y="2" fill="#C95AC4" width="1" height="1" />
	<rect x="20" y="2" fill="#E86DE8" width="1" height="1" />
	<rect x="10" y="3" fill="#C95AC4" width="1" height="1" />
	<rect x="11" y="3" fill="#E86DE8" width="1" height="1" />
	<rect x="12" y="3" fill="#C95AC4" width="1" height="1" />
	<rect x="18" y="3" fill="#F183FF" width="1" height="1" />
	<rect x="19" y="3" fill="#E86DE8" width="1" height="1" />
	<rect x="20" y="3" fill="#C95AC4" width="1" height="1" />
	<rect x="11" y="4" fill="#F183FF" width="1" height="1" />
	<rect x="12" y="4" fill="#C95AC4" width="1" height="1" />
	<rect x="13" y="4" fill="#AE54AF" width="1" height="1" />
	<rect x="17" y="4" fill="#C95AC4" width="1" height="1" />
	<rect x="18" y="4" fill="#E86DE8" width="1" height="1" />
	<rect x="19" y="4" fill="#C95AC4" width="1" height="1" />
	<rect x="12" y="5" fill="#AE54AF" width="1" height="1" />
	<rect x="13" y="5" fill="#C95AC4" width="1" height="1" />
	<rect x="17" y="5" fill="#AE54AF" width="1" height="1" />
	<rect x="18" y="5" fill="#C95AC4" width="1" height="1" />
	<rect x="13" y="6" fill="#02A100" width="1" height="1" />
	<rect x="14" y="6" fill="#00B400" width="1" height="1" />
	<rect x="16" y="6" fill="#AE54AF" width="1" height="1" />
	<rect x="17" y="6" fill="#009600" width="1" height="1" />
	<rect x="14" y="7" fill="#009600" width="1" height="1" />
	<rect x="15" y="7" fill="#008400" width="1" height="1" />
	<rect x="16" y="7" fill="#009600" width="1" height="1" />
	<rect x="14" y="8" fill="#02A100" width="1" height="1" />
	<rect x="15" y="8" fill="#00B400" width="1" height="1" />
	<rect x="18" y="8" fill="#AE54AF" width="1" height="1" />
	<rect x="19" y="8" fill="#C95AC4" width="1" height="1" />
	<rect x="20" y="8" fill="#F183FF" width="1" height="1" />
	<rect x="21" y="8" fill="#E86DE8" width="1" height="1" />
	<rect x="9" y="9" fill="#E86DE8" width="1" height="1" />
	<rect x="10" y="9" fill="#F183FF" width="1" height="1" />
	<rect x="11" y="9" fill="#E86DE8" width="1" height="1" />
	<rect x="15" y="9" fill="#00B400" width="1" height="1" />
	<rect x="17" y="9" fill="#009600" width="1" height="1" />
	<rect x="18" y="9" fill="#008400" width="1" height="1" />
	<rect x="19" y="9" fill="#F183FF" width="1" height="1" />
	<rect x="20" y="9" fill="#C95AC4" width="1" height="1" />
	<rect x="10" y="10" fill="#E86DE8" width="1" height="1" />
	<rect x="11" y="10" fill="#C95AC4" width="1" height="1" />
	<rect x="12" y="10" fill="#AE54AF" width="1" height="1" />
	<rect x="15" y="10" fill="#02A100" width="1" height="1" />
	<rect x="16" y="10" fill="#008400" width="1" height="1" />
	<rect x="18" y="10" fill="#AE54AF" width="1" height="1" />
	<rect x="11" y="11" fill="#AE54AF" width="1" height="1" />
	<rect x="12" y="11" fill="#008400" width="1" height="1" />
	<rect x="13" y="11" fill="#AE54AF" width="1" height="1" />
	<rect x="15" y="11" fill="#E86DE8" width="1" height="1" />
	<rect x="16" y="11" fill="#009600" width="1" height="1" />
	<rect x="20" y="11" fill="#E86DE8" width="1" height="1" />
	<rect x="21" y="11" fill="#E86DE8" width="1" height="1" />
	<rect x="12" y="12" fill="#AE54AF" width="1" height="1" />
	<rect x="13" y="12" fill="#009600" width="1" height="1" />
	<rect x="14" y="12" fill="#00B400" width="1" height="1" />
	<rect x="15" y="12" fill="#F183FF" width="1" height="1" />
	<rect x="16" y="12" fill="#C95AC4" width="1" height="1" />
	<rect x="19" y="12" fill="#E86DE8" width="1" height="1" />
	<rect x="20" y="12" fill="#F183FF" width="1" height="1" />
	<rect x="21" y="12" fill="#C95AC4" width="1" height="1" />
	<rect x="15" y="13" fill="#C95AC4" width="1" height="1" />
	<rect x="16" y="13" fill="#AE54AF" width="1" height="1" />
	<rect x="18" y="13" fill="#AE54AF" width="1" height="1" />
	<rect x="19" y="13" fill="#008400" width="1" height="1" />
	<rect x="20" y="13" fill="#AE54AF" width="1" height="1" />
	<rect x="12" y="14" fill="#E86DE8" width="1" height="1" />
	<rect x="16" y="14" fill="#AE54AF" width="1" height="1" />
	<rect x="18" y="14" fill="#008400" width="1" height="1" />
	<rect x="19" y="14" fill="#AE54AF" width="1" height="1" />
	<rect x="11" y="15" fill="#E86DE8" width="1" height="1" />
	<rect x="12" y="15" fill="#F183FF" width="1" height="1" />
	<rect x="16" y="15" fill="#00B400" width="1" height="1" />
	<rect x="17" y="15" fill="#02A100" width="1" height="1" />
	<rect x="11" y="16" fill="#C95AC4" width="1" height="1" />
	<rect x="12" y="16" fill="#E86DE8" width="1" height="1" />
	<rect x="13" y="16" fill="#C95AC4" width="1" height="1" />
	<rect x="15" y="16" fill="#008400" width="1" height="1" />
	<rect x="16" y="16" fill="#02A100" width="1" height="1" />
	<rect x="19" y="16" fill="#C95AC4" width="1" height="1" />
	<rect x="20" y="16" fill="#E86DE8" width="1" height="1" />
	<rect x="21" y="16" fill="#E86DE8" width="1" height="1" />
	<rect x="11" y="17" fill="#C95AC4" width="1" height="1" />
	<rect x="12" y="17" fill="#008400" width="1" height="1" />
	<rect x="13" y="17" fill="#AE54AF" width="1" height="1" />
	<rect x="15" y="17" fill="#00B400" width="1" height="1" />
	<rect x="16" y="17" fill="#009600" width="1" height="1" />
	<rect x="18" y="17" fill="#AE54AF" width="1" height="1" />
	<rect x="19" y="17" fill="#E86DE8" width="1" height="1" />
	<rect x="20" y="17" fill="#F183FF" width="1" height="1" />
	<rect x="12" y="18" fill="#AE54AF" width="1" height="1" />
	<rect x="13" y="18" fill="#008400" width="1" height="1" />
	<rect x="14" y="18" fill="#00B400" width="1" height="1" />
	<rect x="15" y="18" fill="#02A100" width="1" height="1" />
	<rect x="16" y="18" fill="#008400" width="1" height="1" />
	<rect x="17" y="18" fill="#009600" width="1" height="1" />
	<rect x="18" y="18" fill="#008400" width="1" height="1" />
	<rect x="19" y="18" fill="#AE54AF" width="1" height="1" />
	<rect x="14" y="19" fill="#E86DE8" width="1" height="1" />
	<rect x="15" y="19" fill="#F183FF" width="1" height="1" />
	<rect x="16" y="19" fill="#009600" width="1" height="1" />
	<rect x="18" y="19" fill="#AE54AF" width="1" height="1" />
	<rect x="14" y="20" fill="#C95AC4" width="1" height="1" />
	<rect x="15" y="20" fill="#AE54AF" width="1" height="1" />
	<rect x="16" y="20" fill="#C95AC4" width="1" height="1" />
	<rect x="15" y="21" fill="#AE54AF" width="1" height="1" />
	<rect x="16" y="21" fill="#AE54AF" width="1" height="1" />
	<rect x="19" y="21" fill="#C95AC4" width="1" height="1" />
	<rect x="20" y="21" fill="#E86DE8" width="1" height="1" />
	<rect x="21" y="21" fill="#F183FF" width="1" height="1" />
	<rect x="22" y="21" fill="#E86DE8" width="1" height="1" />
	<rect x="12" y="22" fill="#E86DE8" width="1" height="1" />
	<rect x="13" y="22" fill="#F183FF" width="1" height="1" />
	<rect x="16" y="22" fill="#009600" width="1" height="1" />
	<rect x="18" y="22" fill="#008400" width="1" height="1" />
	<rect x="19" y="22" fill="#AE54AF" width="1" height="1" />
	<rect x="20" y="22" fill="#C95AC4" width="1" height="1" />
	<rect x="21" y="22" fill="#E86DE8" width="1" height="1" />
	<rect x="12" y="23" fill="#C95AC4" width="1" height="1" />
	<rect x="13" y="23" fill="#008400" width="1" height="1" />
	<rect x="14" y="23" fill="#C95AC4" width="1" height="1" />
	<rect x="16" y="23" fill="#00B400" width="1" height="1" />
	<rect x="17" y="23" fill="#008400" width="1" height="1" />
	<rect x="18" y="23" fill="#AE54AF" width="1" height="1" />
	<rect x="19" y="23" fill="#AE54AF" width="1" height="1" />
	<rect x="9" y="24" fill="#E86DE8" width="1" height="1" />
	<rect x="10" y="24" fill="#E86DE8" width="1" height="1" />
	<rect x="11" y="24" fill="#C95AC4" width="1" height="1" />
	<rect x="13" y="24" fill="#AE54AF" width="1" height="1" />
	<rect x="14" y="24" fill="#009600" width="1" height="1" />
	<rect x="15" y="24" fill="#009600" width="1" height="1" />
	<rect x="16" y="24" fill="#02A100" width="1" height="1" />
	<rect x="8" y="25" fill="#E86DE8" width="1" height="1" />
	<rect x="9" y="25" fill="#E86DE8" width="1" height="1" />
	<rect x="10" y="25" fill="#F183FF" width="1" height="1" />
	<rect x="11" y="25" fill="#AE54AF" width="1" height="1" />
	<rect x="12" y="25" fill="#008400" width="1" height="1" />
	<rect x="15" y="25" fill="#00B400" width="1" height="1" />
	<rect x="16" y="25" fill="#009600" width="1" height="1" />
	<rect x="10" y="26" fill="#C95AC4" width="1" height="1" />
	<rect x="11" y="26" fill="#C95AC4" width="1" height="1" />
	<rect x="12" y="26" fill="#AE54AF" width="1" height="1" />
	<rect x="13" y="26" fill="#008400" width="1" height="1" />
	<rect x="14" y="26" fill="#009600" width="1" height="1" />
	<rect x="15" y="26" fill="#00B400" width="1" height="1" />
	<rect x="12" y="27" fill="#AE54AF" width="1" height="1" />
	<rect x="13" y="27" fill="#AE54AF" width="1" height="1" />
	<rect x="15" y="27" fill="#02A100" width="1" height="1" />
	<rect x="18" y="27" fill="#C95AC4" width="1" height="1" />
	<rect x="19" y="27" fill="#E86DE8" width="1" height="1" />
	<rect x="20" y="27" fill="#E86DE8" width="1" height="1" />
	<rect x="15" y="28" fill="#02A100" width="1" height="1" />
	<rect x="16" y="28" fill="#009600" width="1" height="1" />
	<rect x="17" y="28" fill="#AE54AF" width="1" height="1" />
	<rect x="18" y="28" fill="#AE54AF" width="1" height="1" />
	<rect x="19" y="28" fill="#C95AC4" width="1" height="1" />
	<rect x="20" y="28" fill="#F183FF" width="1" height="1" />
	<rect x="21" y="28" fill="#E86DE8" width="1" height="1" />
	<rect x="15" y="29" fill="#009600" width="1" height="1" />
	<rect x="16" y="29" fill="#008400" width="1" height="1" />
	<rect x="17" y="29" fill="#008400" width="1" height="1" />
	<rect x="18" y="29" fill="#AE54AF" width="1" height="1" />
	<rect x="16" y="30" fill="#008400" width="1" height="1" />
	<rect x="16" y="31" fill="#008400" width="1" height="1" />
</svg>
